<svg xmlns="http://www.w3.org/2000/svg" width="32" height="33" viewBox="0 0 32 33" fill="none" class="icon skip-lazy  svg replaced-svg" aria-label="nintendo switch icon"><title>nintendo switch</title>
<g opacity="0.5" clip-path="url(#clip0_429_5396)">
<path d="M8.77919 3.08973C6.09025 3.5705 3.9268 5.56065 3.24479 8.17691C2.99881 9.12167 2.98204 9.67511 3.00999 17.004C3.02676 23.7348 3.03235 23.8913 3.14416 24.4111C3.76469 27.2119 5.75483 29.2077 8.58353 29.8673C8.95249 29.9511 9.42207 29.9679 12.4464 29.9847C15.577 30.007 15.9013 30.0015 15.9851 29.9176C16.0689 29.8337 16.0745 28.7548 16.0745 16.5232C16.0745 7.45576 16.0578 3.18477 16.0187 3.1065C15.9627 3.00588 15.8677 3.00029 12.5918 3.00588C9.93079 3.01147 9.13137 3.02824 8.77919 3.08973ZM13.8384 16.5064V27.8324L11.5632 27.8045C9.46679 27.7821 9.24319 27.7709 8.82391 27.6647C7.02383 27.2007 5.68775 25.8143 5.3132 24.0087C5.19022 23.4441 5.19022 9.53535 5.30761 8.98191C5.64303 7.41104 6.73313 6.10849 8.20338 5.52151C8.94131 5.22523 9.28231 5.19169 11.6749 5.18609L13.8384 5.1805V16.5064Z" fill="white"></path>
<path d="M9.25945 8.5958C8.90726 8.66288 8.37059 8.93121 8.08549 9.18277C7.49851 9.6915 7.20781 10.4126 7.25253 11.2624C7.27489 11.704 7.30284 11.8214 7.48174 12.1792C7.74448 12.7214 8.14139 13.1183 8.68365 13.3867C9.0582 13.5711 9.15323 13.5935 9.63959 13.6103C10.0812 13.6271 10.2378 13.6103 10.534 13.5097C11.7472 13.1016 12.4794 11.922 12.2726 10.7145C12.0322 9.27781 10.6682 8.31628 9.25945 8.5958Z" fill="white"></path>
<path d="M18.7969 3.03913C18.7746 3.0559 18.7578 9.11579 18.7578 16.5061C18.7578 28.6986 18.7634 29.9341 18.8472 29.9676C18.9982 30.0235 23.3363 30.0011 23.8729 29.9453C26.1426 29.6881 28.1439 28.3073 29.234 26.2557C29.3738 25.9929 29.5582 25.5513 29.6533 25.2774C30.0054 24.2264 29.9943 24.5059 29.9943 16.4726C29.9943 10.0605 29.9831 9.10461 29.9049 8.69652C29.3514 5.78397 27.1321 3.58698 24.2139 3.08385C23.8226 3.01677 23.2189 3 21.2734 3C19.9317 3 18.8137 3.01677 18.7969 3.03913ZM24.7674 15.2148C25.6395 15.444 26.355 16.1092 26.6457 16.959C26.8302 17.4844 26.8246 18.2559 26.6401 18.7367C26.2991 19.62 25.6282 20.2405 24.7674 20.4697C23.3698 20.8331 21.8828 19.9889 21.4747 18.6026C21.3517 18.1777 21.3573 17.4621 21.497 17.0261C21.9163 15.6565 23.3698 14.8514 24.7674 15.2148Z" fill="white"></path>
</g>
<defs>
<clipPath id="clip0_429_5396">
<rect width="27" height="27" fill="white" transform="translate(3 3)"></rect>
</clipPath>
</defs>
</svg>