<svg xmlns="http://www.w3.org/2000/svg" width="40" height="33" viewBox="0 0 40 33" fill="none" class="icon skip-lazy  svg replaced-svg" aria-label="Sony PS icon"><title>Sony PS</title>
<g opacity="0.5" clip-path="url(#clip0_422_577)">
<path d="M0.809583 23.829C-0.689542 24.8613 -0.189834 26.8226 3.0083 27.7516C6.30638 28.8871 9.90427 29.1968 13.4022 28.5774C13.6021 28.5774 13.802 28.4742 13.9019 28.4742V24.9645L10.5039 26.1C9.20468 26.5129 7.90544 26.6161 6.6062 26.3064C5.60678 25.9968 5.80667 25.3774 7.00597 24.8613L13.9019 22.3839V18.5645L4.30754 21.971C3.10824 22.3839 1.90894 23.0032 0.809583 23.829ZM23.9961 8.34516V18.3581C28.0937 20.4226 31.2918 18.3581 31.2918 12.9903C31.2918 7.51935 29.3929 5.04194 23.8961 3.08065C20.9978 2.04839 17.9996 1.11935 15.0013 0.5V30.3323L21.9972 32.5V7.41613C21.9972 6.28065 21.9972 5.45484 22.7968 5.76452C23.8961 6.07419 23.9961 7.20968 23.9961 8.34516ZM36.9885 21.4548C34.0902 20.4226 30.992 20.0097 27.9937 20.3194C26.3947 20.4226 24.8955 20.8355 23.4963 21.3516L23.1965 21.4548V25.4806L29.6927 23.0032C30.992 22.5903 32.2912 22.4871 33.5905 22.7968C34.5899 23.1065 34.39 23.7258 33.1907 24.2419L23.1965 28.0613V31.9839L36.9885 26.7194C37.9879 26.3065 38.8874 25.7903 39.6869 24.9645C40.3865 23.9323 40.0867 22.4871 36.9885 21.4548Z" fill="white"></path>
</g>
<defs>
<clipPath id="clip0_422_577">
<rect width="40" height="33" fill="white"></rect>
</clipPath>
</defs>
</svg>